<?xml version="1.0" standalone="no"?>
<!DOCTYPE svg PUBLIC "-//W3C//DTD SVG 20010904//EN"
 "http://www.w3.org/TR/2001/REC-SVG-20010904/DTD/svg10.dtd">
<svg version="1.0" xmlns="http://www.w3.org/2000/svg"
 width="512.000000pt" height="512.000000pt" viewBox="0 0 512.000000 512.000000"
 preserveAspectRatio="xMidYMid meet">
<metadata>
Created by potrace 1.11, written by Peter Selinger 2001-2013
</metadata>
<g transform="translate(0.000000,512.000000) scale(0.100000,-0.100000)"
fill="#000000" stroke="none">
<path d="M2360 5111 c-772 -66 -1462 -464 -1903 -1098 -456 -656 -576 -1473
-328 -2245 226 -706 784 -1305 1468 -1577 852 -338 1779 -216 2512 332 130 97
388 356 489 492 255 343 420 726 482 1120 65 413 46 758 -62 1134 -164 572
-551 1100 -1048 1427 -309 203 -691 345 -1075 399 -132 18 -407 26 -535 16z
m478 -334 l84 -12 -177 -95 c-98 -52 -183 -94 -189 -92 -6 2 -87 45 -181 95
l-170 92 80 11 c106 15 449 15 553 1z m-764 -313 l326 -176 0 -312 0 -312
-462 -336 -462 -336 -250 126 -251 127 -77 359 -77 360 70 82 c142 168 372
353 583 469 67 37 255 125 267 125 4 0 153 -79 333 -176z m1635 13 c201 -121
405 -293 545 -459 l48 -58 -78 -360 -78 -360 -245 -121 c-135 -66 -251 -118
-258 -117 -7 2 -215 151 -463 332 l-450 328 2 315 3 315 323 173 324 173 111
-49 c62 -27 159 -77 216 -112z m-3098 -1094 c21 -98 39 -186 39 -196 0 -15
-299 -351 -306 -344 -4 4 34 201 55 284 12 45 35 121 52 170 32 92 111 273
117 268 2 -2 21 -84 43 -182z m4058 -93 c47 -134 75 -241 94 -364 14 -83 14
-87 -3 -69 -28 30 -252 276 -272 299 -18 20 -17 26 24 215 l42 194 37 -80 c21
-44 56 -132 78 -195z m-1245 -541 c5 -4 -68 -223 -165 -493 l-173 -486 -526 0
-525 0 -167 473 c-92 259 -168 478 -170 486 -2 8 171 140 431 331 l434 317
426 -310 c234 -170 430 -313 435 -318z m-2068 -63 c6 -6 94 -244 194 -530 151
-427 181 -521 172 -537 -9 -15 -265 -323 -292 -353 -7 -7 -537 16 -666 30 -51
5 -51 5 -98 79 -173 272 -290 603 -321 906 l-7 66 267 291 267 290 237 -116
c130 -63 241 -120 247 -126z m3163 -52 c212 -232 261 -291 261 -314 0 -47 -39
-259 -66 -360 -35 -131 -114 -327 -176 -440 l-53 -95 -360 -71 c-198 -39 -376
-74 -396 -78 l-37 -7 -148 177 c-82 97 -150 181 -152 187 -2 10 362 1045 370
1053 14 12 467 233 479 233 9 1 133 -127 278 -285z m-1239 -1379 c85 -101 154
-188 153 -192 -3 -15 -296 -648 -303 -657 -5 -4 -44 -17 -89 -27 -338 -79
-812 -63 -1111 38 l-54 18 -98 305 c-61 190 -95 311 -90 321 4 9 75 98 157
197 l150 181 565 0 565 1 155 -185z m855 -276 c-124 -127 -330 -283 -488 -369
l-77 -42 36 78 c19 44 58 129 86 190 l51 110 206 41 c113 23 213 42 221 42 8
1 -8 -22 -35 -50z m-2780 -49 c15 -6 32 -43 68 -152 50 -154 51 -158 39 -158
-31 0 -442 303 -442 327 0 7 312 -8 335 -17z"/>
</g>
</svg>
